# Created by 3DAce v2.72


g
v 0.000000 0.666667 0.225000
v 0.000000 0.333333 0.225000
v 0.000000 0.000000 0.225000
v 0.300000 0.666667 0.225000
v 0.300000 0.333333 0.225000
v 0.300000 0.000000 0.225000
v 0.300000 0.899204 -0.225000
v 0.300000 0.666667 -0.225000
v 0.300000 0.333333 -0.225000
v 0.300000 0.000000 -0.225000
v 0.000000 0.899204 -0.225000
v 0.000000 0.666667 -0.225000
v 0.000000 0.333333 -0.225000
v 0.000000 0.000000 -0.225000
v 0.000000 0.928324 0.170864
v 0.300000 0.928324 0.170864
v 0.183355 0.666667 0.225000
v 0.183355 0.899204 -0.225000
v 0.183355 0.666667 -0.225000
v 0.183355 0.928324 0.170864
v 0.000000 0.723168 0.213310
v 0.300000 0.723168 0.213310
v 0.183355 0.723168 0.213310
v 0.300000 0.987213 0.107697
v 0.000000 0.987213 0.107697
v 0.000000 0.951037 0.166165
v 0.300000 0.951037 0.166165
v 0.000000 0.981914 0.144844
v 0.300000 0.981914 0.144844
v 0.000000 0.891696 0.073265
v 0.183355 0.891696 0.073265
v 0.000000 0.715034 0.173994
v 0.183355 0.715034 0.173994
v -0.000000 0.666667 0.225000
v -0.000000 0.333333 0.225000
v -0.000000 0.000000 0.225000
v -0.300000 0.666667 0.225000
v -0.300000 0.333333 0.225000
v -0.300000 0.000000 0.225000
v -0.300000 0.899204 -0.225000
v -0.300000 0.666667 -0.225000
v -0.300000 0.333333 -0.225000
v -0.300000 0.000000 -0.225000
v -0.000000 0.899204 -0.225000
v -0.000000 0.666667 -0.225000
v -0.000000 0.333333 -0.225000
v -0.000000 0.000000 -0.225000
v -0.000000 0.928324 0.170864
v -0.300000 0.928324 0.170864
v -0.183355 0.666667 0.225000
v -0.183355 0.899204 -0.225000
v -0.183355 0.666667 -0.225000
v -0.183355 0.928324 0.170864
v -0.000000 0.723168 0.213310
v -0.300000 0.723168 0.213310
v -0.183355 0.723168 0.213310
v -0.300000 0.987213 0.107697
v -0.000000 0.987213 0.107697
v -0.000000 0.951037 0.166165
v -0.300000 0.951037 0.166165
v -0.000000 0.981914 0.144844
v -0.300000 0.981914 0.144844
v -0.000000 0.891696 0.073265
v -0.183355 0.891696 0.073265
v -0.000000 0.715034 0.173994
v -0.183355 0.715034 0.173994
# 66 vertices

vt 0.000000 0.000000
vt 1.000000 0.000000
vt 1.000000 0.333333
vt 0.000000 0.333333
vt 0.000000 0.333333
vt 1.000000 0.333333
vt 1.000000 0.666667
vt 0.000000 0.666667
vt 0.000000 0.000000
vt 1.000000 0.000000
vt 1.000000 0.333333
vt 0.000000 0.333333
vt 0.000000 0.000000
vt 1.000000 0.000000
vt 1.000000 0.333333
vt 0.000000 0.333333
vt 0.000000 0.000000
vt 1.000000 0.000000
vt 1.000000 1.000000
vt 0.000000 1.000000
vt 0.388817 0.666667
vt 1.000000 0.666667
vt 1.000000 1.000000
vt 0.388817 1.000000
vt 0.388817 1.000000
vt 0.000000 1.000000
vt 0.000000 0.666667
vt 0.388817 0.666667
vt 0.000000 0.723168
vt 0.000000 0.666667
vt 0.611183 0.666667
vt 0.611183 0.723168
vt 0.611183 0.723168
vt 0.611183 0.666667
vt 1.000000 0.666667
vt 1.000000 0.723168
vt 1.000000 0.723168
vt 1.000000 0.928324
vt 0.611183 0.928324
vt 0.611183 0.723168
vt 1.000000 0.951037
vt 1.000000 0.538948
vt 0.000000 0.538948
vt 0.000000 0.951037
vt 1.000000 0.538948
vt 1.000000 0.126858
vt 0.000000 0.126858
vt 0.000000 0.538948
vt 0.611183 0.928324
vt 0.000000 0.928324
vt 0.000000 0.928324
vt 0.611183 0.928324
vt 0.611183 0.723168
vt 0.611183 0.928324
vt 0.611183 0.928324
vt 0.611183 0.723168
vt 0.000000 0.723168
vt 0.611183 0.723168
vt 0.611183 0.723168
vt 0.000000 0.723168
vt 0.611183 0.723168
vt 0.611183 0.928324
vt 0.000000 0.928324
vt 0.000000 0.723168
vt 1.000000 0.666667
vt 0.000000 0.333333
vt 1.000000 0.333333
vt 1.000000 0.666667
vt 0.611183 0.666667
vt 0.000000 0.666667
vt 0.000000 0.333333
vt 0.611183 0.666667
vt 0.000000 0.333333
vt 1.000000 0.666667
vt 0.611183 0.666667
vt 0.000000 0.333333
vt 1.000000 0.666667
vt 0.000000 0.333333
vt 1.000000 0.333333
vt 1.000000 0.666667
vt 0.388817 0.666667
vt 0.000000 0.666667
vt 0.000000 0.333333
vt 0.388817 0.666667
vt 0.000000 0.333333
vt 1.000000 0.666667
vt 0.388817 0.666667
vt 0.000000 0.333333
vt 0.000000 1.000000
vt 1.000000 1.000000
vt 0.611183 1.000000
vt 0.000000 1.000000
vt 0.000000 1.000000
vt 1.000000 0.126858
vt 1.000000 1.000000
vt 0.000000 1.000000
vt 0.000000 1.000000
vt 0.000000 0.126858
vt 1.000000 0.126858
vt 0.000000 1.000000
vt 1.000000 0.928324
vt 0.000000 0.928324
vt 0.611183 0.928324
vt 1.000000 0.928324
vt 1.000000 0.928324
vt 0.000000 0.951037
vt 0.000000 0.928324
vt 1.000000 0.928324
vt 1.000000 0.928324
vt 1.000000 0.951037
vt 0.000000 0.951037
vt 1.000000 0.928324
vt 0.126858 1.000000
vt 1.000000 0.666667
vt 1.000000 1.000000
vt 0.126858 1.000000
vt 0.126858 1.000000
vt 0.000000 0.666667
vt 1.000000 0.666667
vt 0.126858 1.000000
vt 0.033183 0.981914
vt 0.000000 0.666667
vt 0.126858 1.000000
vt 0.033183 0.981914
vt 0.000000 0.723168
vt 0.000000 0.666667
vt 0.033183 0.981914
vt 0.000000 0.723168
vt 0.033183 0.981914
vt 0.000000 0.928324
vt 0.000000 0.723168
vt 0.033183 0.981914
vt 0.033183 0.981914
vt 0.000000 0.951037
vt 0.000000 0.928324
vt 0.033183 0.981914
vt 0.000000 0.000000
vt 0.000000 0.333333
vt 1.000000 0.333333
vt 1.000000 0.000000
vt 0.000000 0.333333
vt 0.000000 0.666667
vt 1.000000 0.666667
vt 1.000000 0.333333
vt 0.000000 0.000000
vt 0.000000 0.333333
vt 1.000000 0.333333
vt 1.000000 0.000000
vt 0.000000 0.000000
vt 0.000000 0.333333
vt 1.000000 0.333333
vt 1.000000 0.000000
vt 0.000000 0.000000
vt 0.000000 1.000000
vt 1.000000 1.000000
vt 1.000000 0.000000
vt 0.388817 0.666667
vt 0.388817 1.000000
vt 1.000000 1.000000
vt 1.000000 0.666667
vt 0.388817 1.000000
vt 0.388817 0.666667
vt 0.000000 0.666667
vt 0.000000 1.000000
vt 0.000000 0.723168
vt 0.611183 0.723168
vt 0.611183 0.666667
vt 0.000000 0.666667
vt 0.611183 0.723168
vt 1.000000 0.723168
vt 1.000000 0.666667
vt 0.611183 0.666667
vt 1.000000 0.723168
vt 0.611183 0.723168
vt 0.611183 0.928324
vt 1.000000 0.928324
vt 1.000000 0.951037
vt 0.000000 0.951037
vt 0.000000 0.538948
vt 1.000000 0.538948
vt 1.000000 0.538948
vt 0.000000 0.538948
vt 0.000000 0.126858
vt 1.000000 0.126858
vt 0.611183 0.928324
vt 0.611183 0.928324
vt 0.000000 0.928324
vt 0.000000 0.928324
vt 0.611183 0.723168
vt 0.611183 0.723168
vt 0.611183 0.928324
vt 0.611183 0.928324
vt 0.000000 0.723168
vt 0.000000 0.723168
vt 0.611183 0.723168
vt 0.611183 0.723168
vt 0.611183 0.723168
vt 0.000000 0.723168
vt 0.000000 0.928324
vt 0.611183 0.928324
vt 1.000000 0.666667
vt 1.000000 0.333333
vt 0.000000 0.333333
vt 1.000000 0.666667
vt 0.611183 0.666667
vt 0.000000 0.333333
vt 0.000000 0.666667
vt 0.611183 0.666667
vt 0.000000 0.333333
vt 0.611183 0.666667
vt 1.000000 0.666667
vt 0.000000 0.333333
vt 1.000000 0.666667
vt 1.000000 0.333333
vt 0.000000 0.333333
vt 1.000000 0.666667
vt 0.388817 0.666667
vt 0.000000 0.333333
vt 0.000000 0.666667
vt 0.388817 0.666667
vt 0.000000 0.333333
vt 0.388817 0.666667
vt 1.000000 0.666667
vt 0.000000 0.333333
vt 0.000000 1.000000
vt 0.611183 1.000000
vt 1.000000 1.000000
vt 0.000000 1.000000
vt 0.000000 1.000000
vt 1.000000 1.000000
vt 1.000000 0.126858
vt 0.000000 1.000000
vt 0.000000 1.000000
vt 1.000000 0.126858
vt 0.000000 0.126858
vt 0.000000 1.000000
vt 1.000000 0.928324
vt 0.611183 0.928324
vt 0.000000 0.928324
vt 1.000000 0.928324
vt 1.000000 0.928324
vt 0.000000 0.928324
vt 0.000000 0.951037
vt 1.000000 0.928324
vt 1.000000 0.928324
vt 0.000000 0.951037
vt 1.000000 0.951037
vt 1.000000 0.928324
vt 0.126858 1.000000
vt 1.000000 1.000000
vt 1.000000 0.666667
vt 0.126858 1.000000
vt 0.126858 1.000000
vt 1.000000 0.666667
vt 0.000000 0.666667
vt 0.126858 1.000000
vt 0.033183 0.981914
vt 0.126858 1.000000
vt 0.000000 0.666667
vt 0.033183 0.981914
vt 0.000000 0.723168
vt 0.033183 0.981914
vt 0.000000 0.666667
vt 0.000000 0.723168
vt 0.033183 0.981914
vt 0.000000 0.723168
vt 0.000000 0.928324
vt 0.033183 0.981914
vt 0.033183 0.981914
vt 0.000000 0.928324
vt 0.000000 0.951037
vt 0.033183 0.981914
# 272 texture vertices

vn -0.000000 0.000000 1.000000
vn -0.000000 0.000000 1.000000
vn 0.000000 0.000000 1.000000
vn 0.000000 0.000000 1.000000
vn 1.000000 0.000000 0.000000
vn 1.000000 0.000000 0.000000
vn 1.000000 0.000000 0.000000
vn 1.000000 0.000000 0.000000
vn 1.000000 0.000000 0.000000
vn 1.000000 0.000000 0.000000
vn 1.000000 0.000000 0.000000
vn 1.000000 0.000000 0.000000
vn -0.000000 0.000000 -1.000000
vn -0.000000 0.000000 -1.000000
vn 0.000000 0.000000 -1.000000
vn 0.000000 0.000000 -1.000000
vn 0.000000 -1.000000 0.000000
vn 0.000000 -1.000000 0.000000
vn 0.000000 -1.000000 0.000000
vn 0.000000 -1.000000 0.000000
vn 0.000000 0.000000 -1.000000
vn 0.000000 0.000000 -1.000000
vn 0.000000 0.000000 -1.000000
vn 0.000000 0.000000 -1.000000
vn 0.000000 0.000000 -1.000000
vn 0.000000 0.000000 -1.000000
vn 0.000000 0.000000 -1.000000
vn 0.000000 0.000000 -1.000000
vn 0.000000 0.202605 0.979261
vn 0.000000 0.101832 0.994802
vn 0.000000 0.101832 0.994802
vn 0.000000 0.202605 0.979260
vn 0.000000 0.202605 0.979260
vn 0.000000 0.101832 0.994802
vn 0.000000 0.067849 0.997696
vn 0.000000 0.202605 0.979260
vn 0.000000 0.202605 0.979260
vn 0.000000 0.202605 0.979261
vn 0.000000 0.202605 0.979260
vn 0.000000 0.202605 0.979260
vn 0.000000 0.393259 0.919428
vn 0.000000 0.850382 0.526165
vn 0.000000 0.850382 0.526165
vn 0.000000 0.330329 0.943866
vn 0.000000 0.850382 0.526165
vn 0.000000 0.992076 -0.125641
vn 0.000000 0.998292 -0.058419
vn 0.000000 0.850382 0.526165
vn 0.000000 -0.936239 0.351363
vn 0.000000 -0.936239 0.351363
vn 0.000000 -0.936239 0.351363
vn 0.000000 -0.936239 0.351363
vn -1.000000 0.000000 0.000000
vn -1.000000 0.000000 0.000000
vn -1.000000 0.000000 0.000000
vn -1.000000 0.000000 0.000000
vn 0.000000 0.979260 -0.202605
vn 0.000000 0.979260 -0.202605
vn 0.000000 0.979260 -0.202605
vn 0.000000 0.979260 -0.202605
vn 0.000000 0.495320 0.868711
vn 0.000000 0.495320 0.868711
vn 0.000000 0.495320 0.868711
vn 0.000000 0.495320 0.868711
vn 0.000000 0.067849 0.997696
vn 0.000000 0.000000 1.000000
vn 0.000000 0.000000 1.000000
vn 0.000000 0.067849 0.997696
vn 0.000000 0.101832 0.994802
vn 0.000000 0.101832 0.994802
vn 0.000000 0.000000 1.000000
vn 0.000000 0.101832 0.994802
vn 0.000000 0.000000 1.000000
vn 0.000000 0.067849 0.997696
vn 0.000000 0.101832 0.994802
vn 0.000000 0.000000 1.000000
vn 0.000000 0.000000 -1.000000
vn 0.000000 0.000000 -1.000000
vn 0.000000 0.000000 -1.000000
vn 0.000000 0.000000 -1.000000
vn 0.000000 0.000000 -1.000000
vn 0.000000 0.000000 -1.000000
vn 0.000000 0.000000 -1.000000
vn 0.000000 0.000000 -1.000000
vn 0.000000 0.000000 -1.000000
vn 0.000000 0.000000 -1.000000
vn 0.000000 0.000000 -1.000000
vn 0.000000 0.000000 -1.000000
vn 0.000000 0.787841 -0.615879
vn 0.533649 0.515903 -0.670122
vn 0.000000 0.000000 -1.000000
vn 0.000000 0.787841 -0.615879
vn 0.000000 0.966747 -0.255735
vn 0.000000 0.992076 -0.125641
vn 0.000000 0.966747 -0.255735
vn 0.000000 0.966747 -0.255735
vn 0.000000 0.966747 -0.255735
vn 0.000000 0.998292 -0.058419
vn 0.000000 0.992076 -0.125641
vn 0.000000 0.966747 -0.255735
vn 0.554700 0.168577 0.814794
vn 0.000000 -0.482824 0.875718
vn -0.549751 -0.403316 0.731512
vn 0.554700 0.168577 0.814794
vn 0.000000 0.202605 0.979261
vn 0.000000 0.330329 0.943866
vn 0.000000 0.202605 0.979261
vn 0.000000 0.202605 0.979261
vn 0.000000 0.202605 0.979261
vn 0.000000 0.393259 0.919428
vn 0.000000 0.330329 0.943866
vn 0.000000 0.202605 0.979261
vn 1.000000 -0.000000 -0.000000
vn 1.000000 0.000000 0.000000
vn 1.000000 0.000000 -0.000000
vn 1.000000 -0.000000 -0.000000
vn 1.000000 -0.000000 -0.000000
vn 1.000000 0.000000 0.000000
vn 1.000000 0.000000 0.000000
vn 1.000000 -0.000000 -0.000000
vn 1.000000 -0.000000 0.000000
vn 1.000000 0.000000 0.000000
vn 1.000000 -0.000000 -0.000000
vn 1.000000 -0.000000 0.000000
vn 1.000000 0.000000 0.000001
vn 1.000000 0.000000 0.000000
vn 1.000000 -0.000000 0.000000
vn 1.000000 0.000000 0.000001
vn 1.000000 -0.000000 0.000000
vn 1.000000 -0.000000 -0.000000
vn 1.000000 0.000000 0.000001
vn 1.000000 -0.000000 0.000000
vn 1.000000 -0.000000 0.000000
vn 1.000000 0.000000 0.000000
vn 1.000000 -0.000000 -0.000000
vn 1.000000 -0.000000 0.000000
vn 0.000000 0.000000 1.000000
vn 0.000000 0.000000 1.000000
vn 0.000000 0.000000 1.000000
vn 0.000000 0.000000 1.000000
vn -1.000000 0.000000 0.000000
vn -1.000000 0.000000 0.000000
vn -1.000000 0.000000 0.000000
vn -1.000000 0.000000 0.000000
vn -1.000000 0.000000 0.000000
vn -1.000000 0.000000 0.000000
vn -1.000000 0.000000 0.000000
vn -1.000000 0.000000 0.000000
vn 0.000000 0.000000 -1.000000
vn 0.000000 0.000000 -1.000000
vn 0.000000 0.000000 -1.000000
vn 0.000000 0.000000 -1.000000
vn 0.000000 -1.000000 0.000000
vn 0.000000 -1.000000 0.000000
vn 0.000000 -1.000000 0.000000
vn 0.000000 -1.000000 0.000000
vn 0.000000 0.000000 -1.000000
vn 0.000000 0.000000 -1.000000
vn 0.000000 0.000000 -1.000000
vn 0.000000 0.000000 -1.000000
vn 0.000000 0.000000 -1.000000
vn 0.000000 0.000000 -1.000000
vn 0.000000 0.000000 -1.000000
vn 0.000000 0.000000 -1.000000
vn 0.000000 0.202605 0.979261
vn 0.000000 0.202605 0.979260
vn 0.000000 0.101832 0.994802
vn 0.000000 0.101832 0.994802
vn 0.000000 0.202605 0.979260
vn 0.000000 0.202605 0.979260
vn 0.000000 0.067849 0.997696
vn 0.000000 0.101832 0.994802
vn 0.000000 0.202605 0.979260
vn 0.000000 0.202605 0.979260
vn 0.000000 0.202605 0.979260
vn 0.000000 0.202605 0.979261
vn 0.000000 0.393259 0.919428
vn 0.000000 0.330329 0.943866
vn 0.000000 0.850382 0.526165
vn 0.000000 0.850382 0.526165
vn 0.000000 0.850382 0.526165
vn 0.000000 0.850382 0.526165
vn 0.000000 0.998292 -0.058419
vn 0.000000 0.992076 -0.125641
vn 0.000000 -0.936239 0.351363
vn 0.000000 -0.936239 0.351363
vn 0.000000 -0.936239 0.351363
vn 0.000000 -0.936239 0.351363
vn 1.000000 0.000000 0.000000
vn 1.000000 0.000000 0.000000
vn 1.000000 0.000000 0.000000
vn 1.000000 0.000000 0.000000
vn 0.000000 0.979260 -0.202605
vn 0.000000 0.979260 -0.202605
vn 0.000000 0.979260 -0.202605
vn 0.000000 0.979260 -0.202605
vn 0.000000 0.495320 0.868711
vn 0.000000 0.495320 0.868711
vn 0.000000 0.495320 0.868711
vn 0.000000 0.495320 0.868711
vn 0.000000 0.067849 0.997696
vn 0.000000 0.000000 1.000000
vn 0.000000 0.000000 1.000000
vn 0.000000 0.067849 0.997696
vn 0.000000 0.101832 0.994802
vn 0.000000 0.000000 1.000000
vn 0.000000 0.101832 0.994802
vn 0.000000 0.101832 0.994802
vn 0.000000 0.000000 1.000000
vn 0.000000 0.101832 0.994802
vn 0.000000 0.067849 0.997696
vn 0.000000 0.000000 1.000000
vn 0.000000 0.000000 -1.000000
vn 0.000000 0.000000 -1.000000
vn 0.000000 0.000000 -1.000000
vn 0.000000 0.000000 -1.000000
vn 0.000000 0.000000 -1.000000
vn 0.000000 0.000000 -1.000000
vn 0.000000 0.000000 -1.000000
vn 0.000000 0.000000 -1.000000
vn 0.000000 0.000000 -1.000000
vn 0.000000 0.000000 -1.000000
vn 0.000000 0.000000 -1.000000
vn 0.000000 0.000000 -1.000000
vn 0.000000 0.787841 -0.615879
vn 0.000000 0.000000 -1.000000
vn -0.533649 0.515903 -0.670122
vn 0.000000 0.787841 -0.615879
vn 0.000000 0.966747 -0.255735
vn 0.000000 0.966747 -0.255735
vn 0.000000 0.992076 -0.125641
vn 0.000000 0.966747 -0.255735
vn 0.000000 0.966747 -0.255735
vn 0.000000 0.992076 -0.125641
vn 0.000000 0.998292 -0.058419
vn 0.000000 0.966747 -0.255735
vn -0.554700 0.168577 0.814794
vn 0.549751 -0.403316 0.731512
vn 0.000000 -0.482824 0.875718
vn -0.554700 0.168577 0.814794
vn 0.000000 0.202605 0.979261
vn 0.000000 0.202605 0.979261
vn 0.000000 0.330329 0.943866
vn 0.000000 0.202605 0.979261
vn 0.000000 0.202605 0.979261
vn 0.000000 0.330329 0.943866
vn 0.000000 0.393259 0.919428
vn 0.000000 0.202605 0.979261
vn -1.000000 -0.000000 -0.000000
vn -1.000000 0.000000 0.000000
vn -1.000000 0.000000 0.000000
vn -1.000000 -0.000000 -0.000000
vn -1.000000 -0.000000 -0.000000
vn -1.000000 0.000000 0.000000
vn -1.000000 0.000000 0.000000
vn -1.000000 -0.000000 -0.000000
vn -1.000000 -0.000000 0.000000
vn -1.000000 -0.000000 -0.000000
vn -1.000000 0.000000 0.000000
vn -1.000000 -0.000000 0.000000
vn -1.000000 0.000000 0.000001
vn -1.000000 -0.000000 0.000000
vn -1.000000 0.000000 0.000000
vn -1.000000 0.000000 0.000001
vn -1.000000 -0.000000 0.000000
vn -1.000000 0.000000 0.000001
vn -1.000000 -0.000000 -0.000000
vn -1.000000 -0.000000 0.000000
vn -1.000000 -0.000000 0.000000
vn -1.000000 -0.000000 -0.000000
vn -1.000000 -0.000000 -0.000000
vn -1.000000 -0.000000 0.000000
# 272 vertex normals

g mat1
f 3/1/1 6/2/2 5/3/3 2/4/4
f 5/5/5 9/6/6 8/7/7 4/8/8
f 6/9/9 10/10/10 9/11/11 5/12/12
f 10/13/13 14/14/14 13/15/15 9/16/16
f 14/17/17 10/18/18 6/19/19 3/20/20
f 19/21/21 12/22/22 11/23/23 18/24/24
f 18/25/25 7/26/26 8/27/27 19/28/28
f 21/29/29 1/30/30 17/31/31 23/32/32
f 23/33/33 17/34/34 4/35/35 22/36/36
f 22/37/37 16/38/38 20/39/39 23/40/40
f 27/41/41 29/42/42 28/43/43 26/44/44
f 29/45/45 24/46/46 25/47/47 28/48/48
f 20/49/49 15/50/50 30/51/51 31/52/52
f 23/53/53 20/54/54 31/55/55 33/56/56
f 21/57/57 23/58/58 33/59/59 32/60/60
f 33/61/61 31/62/62 30/63/63 32/64/64
f 4/65/65 2/66/66 5/67/67
f 17/69/69 1/70/70 2/71/71
f 2/73/73 4/74/74 17/75/75
f 12/77/77 9/78/78 13/79/79
f 19/81/81 8/82/82 9/83/83
f 9/85/85 12/86/86 19/87/87
f 11/89/89 7/90/90 18/91/91
f 11/93/93 24/94/94 7/95/95
f 11/97/97 25/98/98 24/99/99
f 16/101/101 15/102/102 20/103/103
f 16/105/105 26/106/106 15/107/107
f 16/109/109 27/110/110 26/111/111
f 24/113/113 8/114/114 7/115/115
f 24/117/117 4/118/118 8/119/119
f 29/121/121 4/122/122 24/123/123
f 22/125/125 4/126/126 29/127/127
f 29/129/129 16/130/130 22/131/131
f 29/133/133 27/134/134 16/135/135
f 36/137/137 35/138/138 38/139/139 39/140/140
f 38/141/141 37/142/142 41/143/143 42/144/144
f 39/145/145 38/146/146 42/147/147 43/148/148
f 43/149/149 42/150/150 46/151/151 47/152/152
f 47/153/153 36/154/154 39/155/155 43/156/156
f 52/157/157 51/158/158 44/159/159 45/160/160
f 51/161/161 52/162/162 41/163/163 40/164/164
f 54/165/165 56/166/166 50/167/167 34/168/168
f 56/169/169 55/170/170 37/171/171 50/172/172
f 55/173/173 56/174/174 53/175/175 49/176/176
f 60/177/177 59/178/178 61/179/179 62/180/180
f 62/181/181 61/182/182 58/183/183 57/184/184
f 53/185/185 64/186/186 63/187/187 48/188/188
f 56/189/189 66/190/190 64/191/191 53/192/192
f 54/193/193 65/194/194 66/195/195 56/196/196
f 66/197/197 65/198/198 63/199/199 64/200/200
f 37/201/201 38/202/202 35/203/203
f 50/205/205 35/206/206 34/207/207
f 35/209/209 50/210/210 37/211/211
f 45/213/213 46/214/214 42/215/215
f 52/217/217 42/218/218 41/219/219
f 42/221/221 52/222/222 45/223/223
f 44/225/225 51/226/226 40/227/227
f 44/229/229 40/230/230 57/231/231
f 44/233/233 57/234/234 58/235/235
f 49/237/237 53/238/238 48/239/239
f 49/241/241 48/242/242 59/243/243
f 49/245/245 59/246/246 60/247/247
f 57/249/249 40/250/250 41/251/251
f 57/253/253 41/254/254 37/255/255
f 62/257/257 57/258/258 37/259/259
f 55/261/261 62/262/262 37/263/263
f 62/265/265 55/266/266 49/267/267
f 62/269/269 49/270/270 60/271/271
# 68 elements

