# Created by 3DAce v2.72


g
v 0.000000 -0.585864 -0.100000
v 0.000000 -0.585864 0.100000
v 0.000000 3.751098 -0.100000
v 0.000000 3.751098 0.100000
v 0.000002 3.999260 0.044639
v 0.000002 3.893326 0.177585
v 0.000000 3.994453 0.623902
v 0.000000 3.854611 0.651236
v 0.000001 -0.700916 -0.132736
v 0.000001 -0.727464 0.086726
v 0.000001 -1.240243 -0.221231
v 0.000001 -1.275641 0.002655
v 0.000001 4.113922 0.292043
v 0.000000 3.879175 0.778247
v 0.062984 -0.585864 -0.100000
v 0.062984 -0.585864 0.100000
v 0.062984 3.751098 -0.100000
v 0.062984 3.751097 0.100000
v 0.106197 3.999260 0.044639
v 0.106196 3.893326 0.177585
v 0.106195 3.994454 0.623902
v 0.106195 3.706843 0.902663
v 0.120024 -0.700915 -0.132736
v 0.120023 -0.727463 0.086726
v 0.011132 -1.240243 -0.221231
v 0.011132 -1.275641 0.002655
v 0.106196 3.936931 0.367265
v 0.106196 4.113922 0.292043
v 0.106195 3.879175 0.778247
v 0.021220 3.706843 0.902663
v 0.016071 3.879175 0.778247
v 0.000001 3.936931 0.367264
v 0.075560 3.815670 0.649431
v 0.106195 -0.585864 -0.050000
v 0.106195 3.751097 -0.050000
v 0.106195 3.751097 0.050000
v 0.106195 -0.585864 0.052319
v -0.000000 -0.585864 -0.100000
v -0.000000 -0.585864 0.100000
v -0.000000 3.751098 -0.100000
v -0.000000 3.751098 0.100000
v -0.000002 3.999260 0.044639
v -0.000002 3.893326 0.177585
v -0.000000 3.994453 0.623902
v -0.000000 3.854611 0.651236
v -0.000001 -0.700916 -0.132736
v -0.000001 -0.727464 0.086726
v -0.000001 -1.240243 -0.221231
v -0.000001 -1.275641 0.002655
v -0.000001 4.113922 0.292043
v -0.000000 3.879175 0.778247
v -0.062984 -0.585864 -0.100000
v -0.062984 -0.585864 0.100000
v -0.062984 3.751098 -0.100000
v -0.062984 3.751097 0.100000
v -0.106197 3.999260 0.044639
v -0.106196 3.893326 0.177585
v -0.106195 3.994454 0.623902
v -0.106195 3.706843 0.902663
v -0.120024 -0.700915 -0.132736
v -0.120023 -0.727463 0.086726
v -0.011132 -1.240243 -0.221231
v -0.011132 -1.275641 0.002655
v -0.106196 3.936931 0.367265
v -0.106196 4.113922 0.292043
v -0.106195 3.879175 0.778247
v -0.021220 3.706843 0.902663
v -0.016071 3.879175 0.778247
v -0.000001 3.936931 0.367264
v -0.075560 3.815670 0.649431
v -0.106195 -0.585864 -0.050000
v -0.106195 3.751097 -0.050000
v -0.106195 3.751097 0.050000
v -0.106195 -0.585864 0.052319
# 74 vertices

vt 0.175394 0.817130
vt 0.799796 0.120145
vt 0.817451 0.138980
vt 0.180380 0.846517
vt 0.880633 0.193097
vt 0.242713 0.902984
vt 0.213009 0.875896
vt 0.850079 0.168358
vt 0.157295 0.818947
vt 0.175394 0.817130
vt 0.180380 0.846517
vt 0.146831 0.858324
vt 0.242713 0.902984
vt 0.157975 0.935447
vt 0.152959 0.895135
vt 0.213009 0.875896
vt 0.893200 0.178517
vt 0.880633 0.193097
vt 0.850079 0.168358
vt 0.872320 0.154397
vt 0.799796 0.120145
vt 0.823008 0.100938
vt 0.840417 0.117829
vt 0.817451 0.138980
vt 0.989691 0.084500
vt 0.893200 0.178517
vt 0.872320 0.154397
vt 0.965981 0.079410
vt 0.939271 0.027062
vt 0.983745 0.082313
vt 0.965981 0.079410
vt 0.934656 0.040748
vt 0.823008 0.100938
vt 0.939271 0.027062
vt 0.934656 0.040748
vt 0.840417 0.117829
vt 0.840417 0.117829
vt 0.934656 0.040748
vt 0.965981 0.079410
vt 0.872320 0.154397
vt 0.157975 0.935447
vt 0.083557 0.905291
vt 0.095754 0.877499
vt 0.152959 0.895135
vt 0.109481 0.837575
vt 0.146831 0.858324
vt 0.152959 0.895135
vt 0.095754 0.877499
vt 0.083557 0.905291
vt 0.022267 0.805083
vt 0.059163 0.809261
vt 0.095754 0.877499
vt 0.095754 0.877499
vt 0.059163 0.809261
vt 0.109481 0.837575
vt 0.095754 0.877499
vt 0.109481 0.837575
vt 0.059163 0.809261
vt 0.050917 0.767782
vt 0.109481 0.837575
vt 0.050917 0.767782
vt 0.055934 0.721392
vt 0.109481 0.837575
vt 0.050917 0.767782
vt 0.025261 0.709154
vt 0.055934 0.721392
vt 0.050917 0.767782
vt 0.022246 0.758451
vt 0.100280 0.741174
vt 0.107331 0.737973
vt 0.119109 0.763554
vt 0.093606 0.778736
vt 0.093606 0.778736
vt 0.084111 0.705732
vt 0.100280 0.741174
vt 0.093606 0.778736
vt 0.157295 0.818947
vt 0.146831 0.858324
vt 0.109481 0.837575
vt 0.141079 0.810029
vt 0.141079 0.810029
vt 0.093606 0.778736
vt 0.119109 0.763554
vt 0.141079 0.810029
vt 0.872320 0.154397
vt 0.850079 0.168358
vt 0.841922 0.161014
vt 0.872320 0.154397
vt 0.841922 0.161014
vt 0.850079 0.168358
vt 0.213009 0.875896
vt 0.204852 0.868551
vt 0.204852 0.868551
vt 0.213009 0.875896
vt 0.152959 0.895135
vt 0.204852 0.868551
vt 0.146831 0.858324
vt 0.180380 0.846517
vt 0.188537 0.853862
vt 0.146831 0.858324
vt 0.188537 0.853862
vt 0.204852 0.868551
vt 0.152959 0.895135
vt 0.146831 0.858324
vt 0.188537 0.853862
vt 0.180380 0.846517
vt 0.817451 0.138980
vt 0.825230 0.145984
vt 0.825230 0.145984
vt 0.841922 0.161014
vt 0.204852 0.868551
vt 0.188537 0.853862
vt 0.825230 0.145984
vt 0.817451 0.138980
vt 0.840417 0.117829
vt 0.825230 0.145984
vt 0.840417 0.117829
vt 0.872320 0.154397
vt 0.841922 0.161014
vt 0.825230 0.145984
vt 0.008491 0.753258
vt 0.059163 0.809261
vt 0.022267 0.805083
vt 0.008491 0.753258
vt 0.008491 0.753258
vt 0.050917 0.767782
vt 0.059163 0.809261
vt 0.008491 0.753258
vt 0.008491 0.753258
vt 0.022246 0.758451
vt 0.050917 0.767782
vt 0.008491 0.753258
vt 0.109481 0.837575
vt 0.093606 0.778736
vt 0.141079 0.810029
vt 0.109481 0.837575
vt 0.055934 0.721392
vt 0.093606 0.778736
vt 0.109481 0.837575
vt 0.055934 0.721392
vt 0.055934 0.721392
vt 0.084111 0.705732
vt 0.093606 0.778736
vt 0.055934 0.721392
vt 0.175394 0.817130
vt 0.180380 0.846517
vt 0.817451 0.138980
vt 0.799796 0.120145
vt 0.880633 0.193097
vt 0.850079 0.168358
vt 0.213009 0.875896
vt 0.242713 0.902984
vt 0.157295 0.818947
vt 0.146831 0.858324
vt 0.180380 0.846517
vt 0.175394 0.817130
vt 0.242713 0.902984
vt 0.213009 0.875896
vt 0.152959 0.895135
vt 0.157975 0.935447
vt 0.893200 0.178517
vt 0.872320 0.154397
vt 0.850079 0.168358
vt 0.880633 0.193097
vt 0.799796 0.120145
vt 0.817451 0.138980
vt 0.840417 0.117829
vt 0.823008 0.100938
vt 0.989691 0.084500
vt 0.965981 0.079410
vt 0.872320 0.154397
vt 0.893200 0.178517
vt 0.939271 0.027062
vt 0.934656 0.040748
vt 0.965981 0.079410
vt 0.983745 0.082313
vt 0.823008 0.100938
vt 0.840417 0.117829
vt 0.934656 0.040748
vt 0.939271 0.027062
vt 0.840417 0.117829
vt 0.872320 0.154397
vt 0.965981 0.079410
vt 0.934656 0.040748
vt 0.157975 0.935447
vt 0.152959 0.895135
vt 0.095754 0.877499
vt 0.083557 0.905291
vt 0.109481 0.837575
vt 0.095754 0.877499
vt 0.152959 0.895135
vt 0.146831 0.858324
vt 0.083557 0.905291
vt 0.095754 0.877499
vt 0.059163 0.809261
vt 0.022267 0.805083
vt 0.095754 0.877499
vt 0.109481 0.837575
vt 0.059163 0.809261
vt 0.095754 0.877499
vt 0.109481 0.837575
vt 0.050917 0.767782
vt 0.059163 0.809261
vt 0.109481 0.837575
vt 0.050917 0.767782
vt 0.109481 0.837575
vt 0.055934 0.721392
vt 0.050917 0.767782
vt 0.025261 0.709154
vt 0.022246 0.758451
vt 0.050917 0.767782
vt 0.055934 0.721392
vt 0.100280 0.741174
vt 0.093606 0.778736
vt 0.119109 0.763554
vt 0.107331 0.737973
vt 0.093606 0.778736
vt 0.100280 0.741174
vt 0.084111 0.705732
vt 0.093606 0.778736
vt 0.157295 0.818947
vt 0.141079 0.810029
vt 0.109481 0.837575
vt 0.146831 0.858324
vt 0.141079 0.810029
vt 0.119109 0.763554
vt 0.093606 0.778736
vt 0.141079 0.810029
vt 0.872320 0.154397
vt 0.841922 0.161014
vt 0.850079 0.168358
vt 0.872320 0.154397
vt 0.841922 0.161014
vt 0.204852 0.868551
vt 0.213009 0.875896
vt 0.850079 0.168358
vt 0.204852 0.868551
vt 0.152959 0.895135
vt 0.213009 0.875896
vt 0.204852 0.868551
vt 0.146831 0.858324
vt 0.188537 0.853862
vt 0.180380 0.846517
vt 0.146831 0.858324
vt 0.188537 0.853862
vt 0.146831 0.858324
vt 0.152959 0.895135
vt 0.204852 0.868551
vt 0.188537 0.853862
vt 0.825230 0.145984
vt 0.817451 0.138980
vt 0.180380 0.846517
vt 0.825230 0.145984
vt 0.188537 0.853862
vt 0.204852 0.868551
vt 0.841922 0.161014
vt 0.825230 0.145984
vt 0.840417 0.117829
vt 0.817451 0.138980
vt 0.825230 0.145984
vt 0.840417 0.117829
vt 0.825230 0.145984
vt 0.841922 0.161014
vt 0.872320 0.154397
vt 0.008491 0.753258
vt 0.022267 0.805083
vt 0.059163 0.809261
vt 0.008491 0.753258
vt 0.008491 0.753258
vt 0.059163 0.809261
vt 0.050917 0.767782
vt 0.008491 0.753258
vt 0.008491 0.753258
vt 0.050917 0.767782
vt 0.022246 0.758451
vt 0.008491 0.753258
vt 0.109481 0.837575
vt 0.141079 0.810029
vt 0.093606 0.778736
vt 0.109481 0.837575
vt 0.055934 0.721392
vt 0.109481 0.837575
vt 0.093606 0.778736
vt 0.055934 0.721392
vt 0.055934 0.721392
vt 0.093606 0.778736
vt 0.084111 0.705732
vt 0.055934 0.721392
# 288 texture vertices

vn -0.000001 -0.247103 0.968989
vn -0.000001 -0.046719 0.998908
vn 0.405414 0.037532 0.913362
vn 0.395253 -0.277698 0.875591
vn -0.000000 0.138160 -0.990410
vn 0.000001 0.260802 -0.965392
vn 0.418066 0.209068 -0.884031
vn 0.396856 0.213789 -0.892636
vn -0.000002 -0.796876 0.604143
vn -0.000001 -0.247103 0.968989
vn 0.395253 -0.277698 0.875591
vn 0.245956 -0.738452 0.627849
vn 0.000001 0.260802 -0.965392
vn 0.000003 0.739452 -0.673209
vn 0.278416 0.626810 -0.727732
vn 0.418066 0.209068 -0.884031
vn 0.000003 0.218152 -0.975915
vn -0.000000 0.138160 -0.990410
vn 0.396856 0.213789 -0.892636
vn 0.238786 0.334736 -0.911556
vn -0.000001 -0.046719 0.998908
vn -0.000004 -0.122516 0.992467
vn 0.263750 -0.005730 0.964574
vn 0.405414 0.037532 0.913362
vn 0.000006 0.161920 -0.986804
vn 0.000003 0.218152 -0.975915
vn 0.238786 0.334736 -0.911556
vn 0.000006 0.161920 -0.986804
vn 0.000002 -0.987731 -0.156167
vn 0.000002 -0.987731 -0.156167
vn 0.000002 -0.987731 -0.156167
vn 0.000002 -0.987731 -0.156167
vn -0.000004 -0.122516 0.992467
vn -0.000006 -0.151591 0.988443
vn -0.000006 -0.151591 0.988443
vn 0.263750 -0.005730 0.964574
vn 0.972254 0.050696 0.228368
vn 0.980992 -0.192186 -0.026831
vn 0.980992 -0.192186 -0.026831
vn 0.965245 0.146771 -0.216243
vn 0.000003 0.739452 -0.673209
vn -0.000001 0.999023 -0.044203
vn -0.000001 0.999023 -0.044203
vn 0.000003 0.739452 -0.673209
vn 1.000000 0.000002 0.000003
vn 0.961543 -0.183402 0.204446
vn 0.970519 0.085878 -0.225204
vn 1.000000 0.000001 0.000004
vn -0.000001 0.999023 -0.044203
vn -0.000006 0.880666 0.473737
vn -0.000006 0.856071 0.516859
vn -0.000001 0.999023 -0.044203
vn 1.000000 0.000001 0.000004
vn 1.000000 0.000003 0.000004
vn 1.000000 0.000002 0.000003
vn 1.000000 0.000001 0.000004
vn 1.000000 0.000002 0.000003
vn 1.000000 0.000003 0.000004
vn 1.000000 0.000004 0.000003
vn 1.000000 0.000002 0.000003
vn 1.000000 0.000004 0.000003
vn 1.000000 0.000002 0.000003
vn 1.000000 0.000002 0.000003
vn 1.000000 0.000004 0.000003
vn -0.000003 0.585347 0.810783
vn -0.000003 0.585347 0.810783
vn -0.000005 0.690886 0.722964
vn -0.000004 0.628475 0.777830
vn -0.227155 -0.950381 0.212546
vn -0.227155 -0.950381 0.212546
vn -0.349797 -0.936637 -0.018808
vn -0.141515 -0.956330 -0.255746
vn -0.742339 -0.599332 -0.299558
vn -0.920379 -0.246591 -0.303474
vn -0.920379 -0.246591 -0.303474
vn -0.742339 -0.599332 -0.299558
vn -0.000002 -0.796876 0.604143
vn 0.245956 -0.738452 0.627849
vn 0.000002 -0.980365 -0.197192
vn -0.159030 -0.975990 -0.148841
vn -0.159030 -0.975990 -0.148841
vn -0.301475 -0.908955 -0.287947
vn -0.349797 -0.936637 -0.018808
vn -0.159030 -0.975990 -0.148841
vn 0.702053 0.222789 -0.676378
vn 0.396856 0.213789 -0.892636
vn 0.929437 0.161558 -0.331730
vn 0.702053 0.222789 -0.676378
vn 0.929437 0.161558 -0.331730
vn 0.396856 0.213789 -0.892636
vn 0.418066 0.209068 -0.884031
vn 0.936170 0.064884 -0.345509
vn 0.936170 0.064884 -0.345509
vn 0.418066 0.209068 -0.884031
vn 0.852900 0.232551 -0.467421
vn 0.936170 0.064884 -0.345509
vn 0.717947 -0.530327 0.450894
vn 0.395253 -0.277698 0.875591
vn 0.931622 -0.138527 0.335991
vn 0.717947 -0.530327 0.450894
vn 0.931622 -0.138527 0.335991
vn 0.936170 0.064884 -0.345509
vn 0.970519 0.085878 -0.225204
vn 0.961543 -0.183402 0.204446
vn 0.931622 -0.138527 0.335991
vn 0.395253 -0.277698 0.875591
vn 0.405414 0.037532 0.913362
vn 0.930464 0.089424 0.355304
vn 0.930464 0.089424 0.355304
vn 0.929437 0.161558 -0.331730
vn 0.936170 0.064884 -0.345509
vn 0.931622 -0.138527 0.335991
vn 0.930464 0.089424 0.355304
vn 0.405414 0.037532 0.913362
vn 0.717304 -0.027743 0.696208
vn 0.930464 0.089424 0.355304
vn 0.972254 0.050696 0.228368
vn 0.965245 0.146771 -0.216243
vn 0.929437 0.161558 -0.331730
vn 0.930464 0.089424 0.355304
vn -0.000006 0.760605 0.649215
vn -0.000006 0.856071 0.516859
vn -0.000006 0.880666 0.473737
vn -0.000006 0.760605 0.649215
vn -0.000006 0.760605 0.649215
vn -0.000005 0.690886 0.722964
vn -0.000006 0.856071 0.516859
vn -0.000006 0.760605 0.649215
vn -0.000006 0.760605 0.649215
vn -0.000004 0.628475 0.777830
vn -0.000005 0.690886 0.722964
vn -0.000006 0.760605 0.649215
vn 0.000002 -0.980365 -0.197192
vn -0.141515 -0.956330 -0.255746
vn -0.159030 -0.975990 -0.148841
vn 0.000002 -0.980365 -0.197192
vn 0.000004 -0.918752 -0.394835
vn -0.141515 -0.956330 -0.255746
vn 0.000002 -0.980365 -0.197193
vn 0.000004 -0.918752 -0.394835
vn 0.000004 -0.918752 -0.394835
vn 0.000001 -0.918752 -0.394835
vn -0.141515 -0.956330 -0.255746
vn 0.000004 -0.918752 -0.394835
vn 0.000001 -0.247103 0.968989
vn -0.395253 -0.277698 0.875591
vn -0.405414 0.037532 0.913362
vn 0.000001 -0.046719 0.998908
vn 0.000000 0.138160 -0.990410
vn -0.396856 0.213789 -0.892636
vn -0.418066 0.209068 -0.884031
vn -0.000001 0.260802 -0.965392
vn 0.000002 -0.796876 0.604143
vn -0.245956 -0.738452 0.627849
vn -0.395253 -0.277698 0.875591
vn 0.000001 -0.247103 0.968989
vn -0.000001 0.260802 -0.965392
vn -0.418066 0.209068 -0.884031
vn -0.278416 0.626810 -0.727732
vn -0.000003 0.739452 -0.673209
vn -0.000003 0.218152 -0.975915
vn -0.238786 0.334736 -0.911556
vn -0.396856 0.213789 -0.892636
vn 0.000000 0.138160 -0.990410
vn 0.000001 -0.046719 0.998908
vn -0.405414 0.037532 0.913362
vn -0.263750 -0.005730 0.964574
vn 0.000004 -0.122516 0.992467
vn -0.000006 0.161920 -0.986804
vn -0.000006 0.161920 -0.986804
vn -0.238786 0.334736 -0.911556
vn -0.000003 0.218152 -0.975915
vn -0.000002 -0.987731 -0.156167
vn -0.000002 -0.987731 -0.156167
vn -0.000002 -0.987731 -0.156167
vn -0.000002 -0.987731 -0.156167
vn 0.000004 -0.122516 0.992467
vn -0.263750 -0.005730 0.964574
vn 0.000006 -0.151591 0.988443
vn 0.000006 -0.151591 0.988443
vn -0.972254 0.050696 0.228368
vn -0.965245 0.146771 -0.216243
vn -0.980992 -0.192186 -0.026831
vn -0.980992 -0.192186 -0.026831
vn -0.000003 0.739452 -0.673209
vn -0.000003 0.739452 -0.673209
vn 0.000001 0.999023 -0.044203
vn 0.000001 0.999023 -0.044203
vn -1.000000 0.000002 0.000003
vn -1.000000 0.000001 0.000004
vn -0.970519 0.085878 -0.225204
vn -0.961543 -0.183402 0.204446
vn 0.000001 0.999023 -0.044203
vn 0.000001 0.999023 -0.044203
vn 0.000006 0.856071 0.516859
vn 0.000006 0.880666 0.473737
vn -1.000000 0.000001 0.000004
vn -1.000000 0.000002 0.000003
vn -1.000000 0.000003 0.000004
vn -1.000000 0.000001 0.000004
vn -1.000000 0.000002 0.000003
vn -1.000000 0.000004 0.000003
vn -1.000000 0.000003 0.000004
vn -1.000000 0.000002 0.000003
vn -1.000000 0.000004 0.000003
vn -1.000000 0.000002 0.000003
vn -1.000000 0.000002 0.000003
vn -1.000000 0.000004 0.000003
vn 0.000003 0.585347 0.810783
vn 0.000004 0.628475 0.777830
vn 0.000005 0.690886 0.722964
vn 0.000003 0.585347 0.810783
vn 0.227155 -0.950381 0.212546
vn 0.141515 -0.956330 -0.255746
vn 0.349797 -0.936637 -0.018808
vn 0.227155 -0.950381 0.212546
vn 0.742339 -0.599332 -0.299558
vn 0.920379 -0.246591 -0.303474
vn 0.920379 -0.246591 -0.303474
vn 0.742339 -0.599332 -0.299558
vn 0.000002 -0.796876 0.604143
vn 0.159030 -0.975990 -0.148841
vn -0.000002 -0.980365 -0.197192
vn -0.245956 -0.738452 0.627849
vn 0.159030 -0.975990 -0.148841
vn 0.349797 -0.936637 -0.018808
vn 0.301475 -0.908955 -0.287947
vn 0.159030 -0.975990 -0.148841
vn -0.702053 0.222789 -0.676378
vn -0.929437 0.161558 -0.331730
vn -0.396856 0.213789 -0.892636
vn -0.702053 0.222789 -0.676378
vn -0.929437 0.161558 -0.331730
vn -0.936170 0.064884 -0.345509
vn -0.418066 0.209068 -0.884031
vn -0.396856 0.213789 -0.892636
vn -0.936170 0.064884 -0.345509
vn -0.852900 0.232551 -0.467421
vn -0.418066 0.209068 -0.884031
vn -0.936170 0.064884 -0.345509
vn -0.717947 -0.530327 0.450894
vn -0.931622 -0.138527 0.335991
vn -0.395253 -0.277698 0.875591
vn -0.717947 -0.530327 0.450894
vn -0.931622 -0.138527 0.335991
vn -0.961543 -0.183402 0.204446
vn -0.970519 0.085878 -0.225204
vn -0.936170 0.064884 -0.345509
vn -0.931622 -0.138527 0.335991
vn -0.930464 0.089424 0.355304
vn -0.405414 0.037532 0.913362
vn -0.395253 -0.277698 0.875591
vn -0.930464 0.089424 0.355304
vn -0.931622 -0.138527 0.335991
vn -0.936170 0.064884 -0.345509
vn -0.929437 0.161558 -0.331730
vn -0.930464 0.089424 0.355304
vn -0.717304 -0.027743 0.696208
vn -0.405414 0.037532 0.913362
vn -0.930464 0.089424 0.355304
vn -0.972254 0.050696 0.228368
vn -0.930464 0.089424 0.355304
vn -0.929437 0.161558 -0.331730
vn -0.965245 0.146771 -0.216243
vn 0.000006 0.760605 0.649215
vn 0.000006 0.880666 0.473737
vn 0.000006 0.856071 0.516859
vn 0.000006 0.760605 0.649215
vn 0.000006 0.760605 0.649215
vn 0.000006 0.856071 0.516859
vn 0.000005 0.690886 0.722964
vn 0.000006 0.760605 0.649215
vn 0.000006 0.760605 0.649215
vn 0.000005 0.690886 0.722964
vn 0.000004 0.628475 0.777830
vn 0.000006 0.760605 0.649215
vn -0.000002 -0.980365 -0.197192
vn 0.159030 -0.975990 -0.148841
vn 0.141515 -0.956330 -0.255746
vn -0.000002 -0.980365 -0.197192
vn -0.000004 -0.918752 -0.394835
vn -0.000002 -0.980365 -0.197193
vn 0.141515 -0.956330 -0.255746
vn -0.000004 -0.918752 -0.394835
vn -0.000004 -0.918752 -0.394835
vn 0.141515 -0.956330 -0.255746
vn -0.000001 -0.918752 -0.394835
vn -0.000004 -0.918752 -0.394835
# 288 vertex normals

g mat1
f 4/1/1 2/2/2 16/3/3 18/4/4
f 1/5/5 3/6/6 17/7/7 15/8/8
f 6/9/9 4/10/10 18/11/11 20/12/12
f 3/13/13 5/14/14 19/15/15 17/16/16
f 9/17/17 1/18/18 15/19/19 23/20/20
f 2/21/21 10/22/22 24/23/23 16/24/24
f 11/25/25 9/26/26 23/27/27 25/28/28
f 12/29/29 11/30/30 25/31/31 26/32/32
f 10/33/33 12/34/34 26/35/35 24/36/36
f 24/37/37 26/38/38 25/39/39 23/40/40
f 5/41/41 13/42/42 28/43/43 19/44/44
f 27/45/45 20/46/46 19/47/47 28/48/48
f 13/49/49 7/50/50 21/51/51 28/52/52
f 28/53/53 21/54/54 27/55/55
f 27/57/57 21/58/58 29/59/59
f 29/61/61 22/62/62 27/63/63
f 30/65/65 22/66/66 29/67/67 31/68/68
f 31/69/69 14/70/70 8/71/71 33/72/72
f 33/73/73 30/74/74 31/75/75
f 6/77/77 20/78/78 27/79/79 32/80/80
f 32/81/81 33/82/82 8/83/83
f 23/85/85 15/86/86 34/87/87
f 34/89/89 15/90/90 17/91/91 35/92/92
f 35/93/93 17/94/94 19/95/95
f 20/97/97 18/98/98 36/99/99
f 36/101/101 35/102/102 19/103/103 20/104/104
f 36/105/105 18/106/106 16/107/107 37/108/108
f 37/109/109 34/110/110 35/111/111 36/112/112
f 37/113/113 16/114/114 24/115/115
f 24/117/117 23/118/118 34/119/119 37/120/120
f 14/121/121 21/122/122 7/123/123
f 14/125/125 29/126/126 21/127/127
f 14/129/129 31/130/130 29/131/131
f 27/133/133 33/134/134 32/135/135
f 22/137/137 33/138/138 27/139/139
f 22/141/141 30/142/142 33/143/143
f 41/145/145 55/146/146 53/147/147 39/148/148
f 38/149/149 52/150/150 54/151/151 40/152/152
f 43/153/153 57/154/154 55/155/155 41/156/156
f 40/157/157 54/158/158 56/159/159 42/160/160
f 46/161/161 60/162/162 52/163/163 38/164/164
f 39/165/165 53/166/166 61/167/167 47/168/168
f 48/169/169 62/170/170 60/171/171 46/172/172
f 49/173/173 63/174/174 62/175/175 48/176/176
f 47/177/177 61/178/178 63/179/179 49/180/180
f 61/181/181 60/182/182 62/183/183 63/184/184
f 42/185/185 56/186/186 65/187/187 50/188/188
f 64/189/189 65/190/190 56/191/191 57/192/192
f 50/193/193 65/194/194 58/195/195 44/196/196
f 65/197/197 64/198/198 58/199/199
f 64/201/201 66/202/202 58/203/203
f 66/205/205 64/206/206 59/207/207
f 67/209/209 68/210/210 66/211/211 59/212/212
f 68/213/213 70/214/214 45/215/215 51/216/216
f 70/217/217 68/218/218 67/219/219
f 43/221/221 69/222/222 64/223/223 57/224/224
f 69/225/225 45/226/226 70/227/227
f 60/229/229 71/230/230 52/231/231
f 71/233/233 72/234/234 54/235/235 52/236/236
f 72/237/237 56/238/238 54/239/239
f 57/241/241 73/242/242 55/243/243
f 73/245/245 57/246/246 56/247/247 72/248/248
f 73/249/249 74/250/250 53/251/251 55/252/252
f 74/253/253 73/254/254 72/255/255 71/256/256
f 74/257/257 61/258/258 53/259/259
f 61/261/261 74/262/262 71/263/263 60/264/264
f 51/265/265 44/266/266 58/267/267
f 51/269/269 58/270/270 66/271/271
f 51/273/273 66/274/274 68/275/275
f 64/277/277 69/278/278 70/279/279
f 59/281/281 64/282/282 70/283/283
f 59/285/285 70/286/286 67/287/287
# 72 elements

